<mxfile host="app.diagrams.net" agent="Mozilla/5.0 (Macintosh; Intel Mac OS X 10_15_7) AppleWebKit/537.36 (KHTML, like Gecko) Chrome/135.0.0.0 Safari/537.36" version="26.2.8">
  <diagram name="第 1 页" id="0z1-FVdPiKPSS_fC0RUU">
    <mxGraphModel dx="1880" dy="2118" grid="1" gridSize="10" guides="1" tooltips="1" connect="1" arrows="1" fold="1" page="1" pageScale="1" pageWidth="827" pageHeight="1169" math="0" shadow="0">
      <root>
        <mxCell id="0" />
        <mxCell id="1" parent="0" />
        <mxCell id="oHPVTzvpM5pL2W-SlDK6-1" value="用户界面" style="verticalAlign=top;align=left;spacingTop=8;spacingLeft=2;spacingRight=12;shape=cube;size=10;direction=south;fontStyle=4;html=1;whiteSpace=wrap;" parent="1" vertex="1">
          <mxGeometry x="1160" y="-687.5" width="120" height="80" as="geometry" />
        </mxCell>
        <mxCell id="oHPVTzvpM5pL2W-SlDK6-2" value="语音识别" style="verticalAlign=top;align=left;spacingTop=8;spacingLeft=2;spacingRight=12;shape=cube;size=10;direction=south;fontStyle=4;html=1;whiteSpace=wrap;" parent="1" vertex="1">
          <mxGeometry x="811" y="-725" width="254" height="170" as="geometry" />
        </mxCell>
        <mxCell id="oHPVTzvpM5pL2W-SlDK6-3" value="创建对数梅尔频谱图" style="shape=module;align=left;spacingLeft=20;align=center;verticalAlign=top;whiteSpace=wrap;html=1;" parent="1" vertex="1">
          <mxGeometry x="830" y="-685" width="100" height="50" as="geometry" />
        </mxCell>
        <mxCell id="oHPVTzvpM5pL2W-SlDK6-4" value="softmax操作" style="shape=module;align=left;spacingLeft=20;align=center;verticalAlign=top;whiteSpace=wrap;html=1;" parent="1" vertex="1">
          <mxGeometry x="942.5" y="-685" width="100" height="50" as="geometry" />
        </mxCell>
        <mxCell id="oHPVTzvpM5pL2W-SlDK6-5" value="转换概率分布" style="shape=module;align=left;spacingLeft=20;align=center;verticalAlign=top;whiteSpace=wrap;html=1;" parent="1" vertex="1">
          <mxGeometry x="830" y="-625" width="100" height="50" as="geometry" />
        </mxCell>
        <mxCell id="oHPVTzvpM5pL2W-SlDK6-6" value="根据梅尔频谱图解析音频数据" style="shape=module;align=left;spacingLeft=20;align=center;verticalAlign=top;whiteSpace=wrap;html=1;" parent="1" vertex="1">
          <mxGeometry x="942.5" y="-625" width="100" height="50" as="geometry" />
        </mxCell>
        <mxCell id="oHPVTzvpM5pL2W-SlDK6-7" value="旅客" style="shape=umlActor;verticalLabelPosition=bottom;verticalAlign=top;html=1;" parent="1" vertex="1">
          <mxGeometry x="44" y="-670" width="30" height="60" as="geometry" />
        </mxCell>
        <mxCell id="oHPVTzvpM5pL2W-SlDK6-14" style="edgeStyle=orthogonalEdgeStyle;rounded=0;orthogonalLoop=1;jettySize=auto;html=1;exitX=1;exitY=0.5;exitDx=0;exitDy=0;exitPerimeter=0;" parent="1" source="oHPVTzvpM5pL2W-SlDK6-8" target="oHPVTzvpM5pL2W-SlDK6-10" edge="1">
          <mxGeometry relative="1" as="geometry" />
        </mxCell>
        <mxCell id="oHPVTzvpM5pL2W-SlDK6-8" value="麦克风设备" style="strokeWidth=2;html=1;shape=mxgraph.flowchart.decision;whiteSpace=wrap;" parent="1" vertex="1">
          <mxGeometry x="140" y="-690" width="87" height="80" as="geometry" />
        </mxCell>
        <mxCell id="oHPVTzvpM5pL2W-SlDK6-9" style="edgeStyle=orthogonalEdgeStyle;rounded=0;orthogonalLoop=1;jettySize=auto;html=1;exitX=1;exitY=0.3333333333333333;exitDx=0;exitDy=0;exitPerimeter=0;entryX=0;entryY=0.5;entryDx=0;entryDy=0;entryPerimeter=0;" parent="1" source="oHPVTzvpM5pL2W-SlDK6-7" target="oHPVTzvpM5pL2W-SlDK6-8" edge="1">
          <mxGeometry relative="1" as="geometry" />
        </mxCell>
        <mxCell id="oHPVTzvpM5pL2W-SlDK6-10" value="语音去噪" style="verticalAlign=top;align=left;spacingTop=8;spacingLeft=2;spacingRight=12;shape=cube;size=10;direction=south;fontStyle=4;html=1;whiteSpace=wrap;" parent="1" vertex="1">
          <mxGeometry x="293" y="-737.5" width="144" height="175" as="geometry" />
        </mxCell>
        <mxCell id="oHPVTzvpM5pL2W-SlDK6-11" value="提取输入表示向量" style="shape=module;align=left;spacingLeft=20;align=center;verticalAlign=top;whiteSpace=wrap;html=1;" parent="1" vertex="1">
          <mxGeometry x="311" y="-707.5" width="106" height="35" as="geometry" />
        </mxCell>
        <mxCell id="oHPVTzvpM5pL2W-SlDK6-12" value="线性变换&lt;div&gt;计算注意力分数&lt;br&gt;&lt;div&gt;多头分割&lt;/div&gt;&lt;/div&gt;" style="shape=module;align=left;spacingLeft=20;align=center;verticalAlign=top;whiteSpace=wrap;html=1;" parent="1" vertex="1">
          <mxGeometry x="311" y="-662.5" width="106" height="50" as="geometry" />
        </mxCell>
        <mxCell id="oHPVTzvpM5pL2W-SlDK6-13" value="特征选择&lt;div&gt;平滑处理&lt;/div&gt;" style="shape=module;align=left;spacingLeft=20;align=center;verticalAlign=top;whiteSpace=wrap;html=1;" parent="1" vertex="1">
          <mxGeometry x="311" y="-607.5" width="106" height="35" as="geometry" />
        </mxCell>
        <mxCell id="oHPVTzvpM5pL2W-SlDK6-15" value="声纹特征提取" style="verticalAlign=top;align=left;spacingTop=8;spacingLeft=2;spacingRight=12;shape=cube;size=10;direction=south;fontStyle=4;html=1;whiteSpace=wrap;" parent="1" vertex="1">
          <mxGeometry x="493.5" y="-720" width="130" height="140" as="geometry" />
        </mxCell>
        <mxCell id="oHPVTzvpM5pL2W-SlDK6-16" value="音频分帧" style="shape=module;align=left;spacingLeft=20;align=center;verticalAlign=top;whiteSpace=wrap;html=1;" parent="1" vertex="1">
          <mxGeometry x="508.5" y="-685" width="100" height="45" as="geometry" />
        </mxCell>
        <mxCell id="oHPVTzvpM5pL2W-SlDK6-17" value="x - vector模型提取" style="shape=module;align=left;spacingLeft=20;align=center;verticalAlign=top;whiteSpace=wrap;html=1;" parent="1" vertex="1">
          <mxGeometry x="508.5" y="-635" width="100" height="50" as="geometry" />
        </mxCell>
        <mxCell id="oHPVTzvpM5pL2W-SlDK6-18" style="edgeStyle=orthogonalEdgeStyle;rounded=0;orthogonalLoop=1;jettySize=auto;html=1;exitX=0;exitY=0;exitDx=82.5;exitDy=0;exitPerimeter=0;entryX=0.464;entryY=0.988;entryDx=0;entryDy=0;entryPerimeter=0;" parent="1" source="oHPVTzvpM5pL2W-SlDK6-10" target="oHPVTzvpM5pL2W-SlDK6-15" edge="1">
          <mxGeometry relative="1" as="geometry" />
        </mxCell>
        <mxCell id="oHPVTzvpM5pL2W-SlDK6-21" value="" style="shape=note;size=20;whiteSpace=wrap;html=1;" parent="1" vertex="1">
          <mxGeometry x="680" y="-930" width="600" height="139" as="geometry" />
        </mxCell>
        <mxCell id="oHPVTzvpM5pL2W-SlDK6-22" value="未唤醒设备时" style="strokeWidth=2;html=1;shape=mxgraph.flowchart.decision;whiteSpace=wrap;" parent="1" vertex="1">
          <mxGeometry x="683.5" y="-896" width="87" height="80" as="geometry" />
        </mxCell>
        <mxCell id="oHPVTzvpM5pL2W-SlDK6-23" style="edgeStyle=orthogonalEdgeStyle;rounded=0;orthogonalLoop=1;jettySize=auto;html=1;exitX=0;exitY=0;exitDx=65;exitDy=0;exitPerimeter=0;entryX=0;entryY=0.548;entryDx=0;entryDy=0;entryPerimeter=0;strokeColor=#FF0000;" parent="1" source="oHPVTzvpM5pL2W-SlDK6-15" target="oHPVTzvpM5pL2W-SlDK6-21" edge="1">
          <mxGeometry relative="1" as="geometry" />
        </mxCell>
        <mxCell id="oHPVTzvpM5pL2W-SlDK6-25" value="唤醒词检测" style="shape=note;size=20;whiteSpace=wrap;html=1;" parent="1" vertex="1">
          <mxGeometry x="960" y="-907.02" width="100" height="100" as="geometry" />
        </mxCell>
        <mxCell id="oHPVTzvpM5pL2W-SlDK6-28" value="声纹特征保存" style="shape=note;size=20;whiteSpace=wrap;html=1;" parent="1" vertex="1">
          <mxGeometry x="697" y="-670" width="80" height="70" as="geometry" />
        </mxCell>
        <mxCell id="oHPVTzvpM5pL2W-SlDK6-32" style="edgeStyle=orthogonalEdgeStyle;rounded=0;orthogonalLoop=1;jettySize=auto;html=1;exitX=0.5;exitY=1;exitDx=0;exitDy=0;exitPerimeter=0;entryX=0;entryY=0;entryDx=30;entryDy=0;entryPerimeter=0;strokeColor=#FF8000;" parent="1" source="oHPVTzvpM5pL2W-SlDK6-22" target="oHPVTzvpM5pL2W-SlDK6-28" edge="1">
          <mxGeometry relative="1" as="geometry" />
        </mxCell>
        <mxCell id="oHPVTzvpM5pL2W-SlDK6-33" value="唤醒系统" style="strokeWidth=2;html=1;shape=mxgraph.flowchart.database;whiteSpace=wrap;" parent="1" vertex="1">
          <mxGeometry x="1160" y="-877.02" width="85" height="60" as="geometry" />
        </mxCell>
        <mxCell id="oHPVTzvpM5pL2W-SlDK6-34" style="edgeStyle=orthogonalEdgeStyle;rounded=0;orthogonalLoop=1;jettySize=auto;html=1;exitX=0;exitY=0;exitDx=100;exitDy=60;exitPerimeter=0;entryX=0;entryY=0.5;entryDx=0;entryDy=0;entryPerimeter=0;strokeColor=#FF0000;" parent="1" source="oHPVTzvpM5pL2W-SlDK6-25" target="oHPVTzvpM5pL2W-SlDK6-33" edge="1">
          <mxGeometry relative="1" as="geometry">
            <mxPoint x="1105" y="-847.02" as="sourcePoint" />
          </mxGeometry>
        </mxCell>
        <mxCell id="oHPVTzvpM5pL2W-SlDK6-35" style="edgeStyle=orthogonalEdgeStyle;rounded=0;orthogonalLoop=1;jettySize=auto;html=1;exitX=0;exitY=0;exitDx=40;exitDy=0;exitPerimeter=0;entryX=0.5;entryY=0;entryDx=0;entryDy=0;entryPerimeter=0;strokeColor=#FF0000;" parent="1" source="oHPVTzvpM5pL2W-SlDK6-25" target="oHPVTzvpM5pL2W-SlDK6-7" edge="1">
          <mxGeometry relative="1" as="geometry">
            <Array as="points">
              <mxPoint x="1000" y="-920" />
              <mxPoint x="59" y="-920" />
            </Array>
          </mxGeometry>
        </mxCell>
        <mxCell id="oHPVTzvpM5pL2W-SlDK6-37" style="edgeStyle=orthogonalEdgeStyle;rounded=0;orthogonalLoop=1;jettySize=auto;html=1;exitX=0.5;exitY=1;exitDx=0;exitDy=0;exitPerimeter=0;entryX=0;entryY=0;entryDx=80;entryDy=65;entryPerimeter=0;strokeColor=#999900;" parent="1" source="oHPVTzvpM5pL2W-SlDK6-8" target="oHPVTzvpM5pL2W-SlDK6-1" edge="1">
          <mxGeometry relative="1" as="geometry">
            <Array as="points">
              <mxPoint x="184" y="-540" />
              <mxPoint x="1215" y="-540" />
            </Array>
          </mxGeometry>
        </mxCell>
        <mxCell id="oHPVTzvpM5pL2W-SlDK6-39" value="" style="shape=note;size=20;whiteSpace=wrap;html=1;" parent="1" vertex="1">
          <mxGeometry x="680" y="-360" width="600" height="270" as="geometry" />
        </mxCell>
        <mxCell id="oHPVTzvpM5pL2W-SlDK6-40" style="edgeStyle=orthogonalEdgeStyle;rounded=0;orthogonalLoop=1;jettySize=auto;html=1;exitX=1;exitY=0.5;exitDx=0;exitDy=0;exitPerimeter=0;entryX=-0.006;entryY=0.909;entryDx=0;entryDy=0;entryPerimeter=0;strokeColor=#FF0000;" parent="1" source="oHPVTzvpM5pL2W-SlDK6-22" target="oHPVTzvpM5pL2W-SlDK6-2" edge="1">
          <mxGeometry relative="1" as="geometry" />
        </mxCell>
        <mxCell id="oHPVTzvpM5pL2W-SlDK6-41" value="已唤醒设备时" style="strokeWidth=2;html=1;shape=mxgraph.flowchart.decision;whiteSpace=wrap;" parent="1" vertex="1">
          <mxGeometry x="680" y="-332" width="87" height="80" as="geometry" />
        </mxCell>
        <mxCell id="oHPVTzvpM5pL2W-SlDK6-42" value="音频分帧筛选" style="verticalAlign=top;align=left;spacingTop=8;spacingLeft=2;spacingRight=12;shape=cube;size=10;direction=south;fontStyle=4;html=1;whiteSpace=wrap;" parent="1" vertex="1">
          <mxGeometry x="835.5" y="-347" width="135" height="100" as="geometry" />
        </mxCell>
        <mxCell id="oHPVTzvpM5pL2W-SlDK6-43" value="根据每帧余弦相似度比对筛选目标音频" style="shape=module;align=left;spacingLeft=20;align=center;verticalAlign=top;whiteSpace=wrap;html=1;" parent="1" vertex="1">
          <mxGeometry x="859.5" y="-312" width="100" height="49.5" as="geometry" />
        </mxCell>
        <mxCell id="oHPVTzvpM5pL2W-SlDK6-44" style="edgeStyle=orthogonalEdgeStyle;rounded=0;orthogonalLoop=1;jettySize=auto;html=1;exitX=1;exitY=0.5;exitDx=0;exitDy=0;exitPerimeter=0;entryX=0;entryY=0;entryDx=55;entryDy=135;entryPerimeter=0;strokeColor=#66B2FF;" parent="1" source="oHPVTzvpM5pL2W-SlDK6-41" target="oHPVTzvpM5pL2W-SlDK6-42" edge="1">
          <mxGeometry relative="1" as="geometry" />
        </mxCell>
        <mxCell id="oHPVTzvpM5pL2W-SlDK6-45" style="edgeStyle=orthogonalEdgeStyle;rounded=0;orthogonalLoop=1;jettySize=auto;html=1;exitX=0.5;exitY=1;exitDx=0;exitDy=0;exitPerimeter=0;strokeColor=#FF8000;" parent="1" source="oHPVTzvpM5pL2W-SlDK6-28" edge="1" target="oHPVTzvpM5pL2W-SlDK6-42">
          <mxGeometry relative="1" as="geometry">
            <mxPoint x="910" y="-500" as="targetPoint" />
            <Array as="points">
              <mxPoint x="737" y="-470" />
              <mxPoint x="881" y="-470" />
            </Array>
          </mxGeometry>
        </mxCell>
        <mxCell id="oHPVTzvpM5pL2W-SlDK6-46" style="edgeStyle=orthogonalEdgeStyle;rounded=0;orthogonalLoop=1;jettySize=auto;html=1;exitX=0;exitY=0;exitDx=65;exitDy=0;exitPerimeter=0;entryX=0;entryY=0.5;entryDx=0;entryDy=0;entryPerimeter=0;strokeColor=#66B2FF;" parent="1" source="oHPVTzvpM5pL2W-SlDK6-15" target="oHPVTzvpM5pL2W-SlDK6-41" edge="1">
          <mxGeometry relative="1" as="geometry" />
        </mxCell>
        <mxCell id="oHPVTzvpM5pL2W-SlDK6-47" style="edgeStyle=orthogonalEdgeStyle;rounded=0;orthogonalLoop=1;jettySize=auto;html=1;exitX=0;exitY=0;exitDx=45;exitDy=0;exitPerimeter=0;entryX=0.982;entryY=0.283;entryDx=0;entryDy=0;entryPerimeter=0;strokeColor=#66B2FF;" parent="1" source="oHPVTzvpM5pL2W-SlDK6-42" target="oHPVTzvpM5pL2W-SlDK6-2" edge="1">
          <mxGeometry relative="1" as="geometry" />
        </mxCell>
        <mxCell id="oHPVTzvpM5pL2W-SlDK6-48" value="LLM" style="verticalAlign=top;align=left;spacingTop=8;spacingLeft=2;spacingRight=12;shape=cube;size=10;direction=south;fontStyle=4;html=1;whiteSpace=wrap;" parent="1" vertex="1">
          <mxGeometry x="1070" y="-342" width="188.5" height="90" as="geometry" />
        </mxCell>
        <mxCell id="oHPVTzvpM5pL2W-SlDK6-49" value="选择航班&lt;div&gt;选择座位&lt;/div&gt;&lt;div&gt;...&lt;/div&gt;" style="shape=module;align=left;spacingLeft=20;align=center;verticalAlign=top;whiteSpace=wrap;html=1;" parent="1" vertex="1">
          <mxGeometry x="1110" y="-312" width="100" height="50" as="geometry" />
        </mxCell>
        <mxCell id="oHPVTzvpM5pL2W-SlDK6-51" value="指令解析" style="shape=note;size=20;whiteSpace=wrap;html=1;" parent="1" vertex="1">
          <mxGeometry x="1149" y="-199" width="100" height="100" as="geometry" />
        </mxCell>
        <mxCell id="oHPVTzvpM5pL2W-SlDK6-52" style="edgeStyle=orthogonalEdgeStyle;rounded=0;orthogonalLoop=1;jettySize=auto;html=1;exitX=0;exitY=0;exitDx=90;exitDy=70;exitPerimeter=0;entryX=0;entryY=0;entryDx=40;entryDy=0;entryPerimeter=0;strokeColor=#66B2FF;" parent="1" source="oHPVTzvpM5pL2W-SlDK6-48" target="oHPVTzvpM5pL2W-SlDK6-51" edge="1">
          <mxGeometry relative="1" as="geometry" />
        </mxCell>
        <mxCell id="oHPVTzvpM5pL2W-SlDK6-53" value="后端API" style="verticalAlign=top;align=left;spacingTop=8;spacingLeft=2;spacingRight=12;shape=cube;size=10;direction=south;fontStyle=4;html=1;whiteSpace=wrap;" parent="1" vertex="1">
          <mxGeometry x="885" y="-179" width="96" height="70" as="geometry" />
        </mxCell>
        <mxCell id="oHPVTzvpM5pL2W-SlDK6-54" style="edgeStyle=orthogonalEdgeStyle;rounded=0;orthogonalLoop=1;jettySize=auto;html=1;exitX=0;exitY=0.5;exitDx=0;exitDy=0;exitPerimeter=0;entryX=0;entryY=0;entryDx=30;entryDy=0;entryPerimeter=0;strokeColor=#66B2FF;" parent="1" source="oHPVTzvpM5pL2W-SlDK6-51" target="oHPVTzvpM5pL2W-SlDK6-53" edge="1">
          <mxGeometry relative="1" as="geometry" />
        </mxCell>
        <mxCell id="oHPVTzvpM5pL2W-SlDK6-59" value="" style="verticalLabelPosition=bottom;verticalAlign=top;html=1;shape=mxgraph.flowchart.on-page_reference;align=center;" parent="1" vertex="1">
          <mxGeometry x="84.5" y="-662.5" width="30" height="30" as="geometry" />
        </mxCell>
        <mxCell id="oHPVTzvpM5pL2W-SlDK6-60" value="1" style="text;html=1;align=center;verticalAlign=middle;resizable=0;points=[];autosize=1;strokeColor=none;fillColor=none;" parent="1" vertex="1">
          <mxGeometry x="84.5" y="-662.5" width="30" height="30" as="geometry" />
        </mxCell>
        <mxCell id="oHPVTzvpM5pL2W-SlDK6-61" value="" style="verticalLabelPosition=bottom;verticalAlign=top;html=1;shape=mxgraph.flowchart.on-page_reference;align=center;" parent="1" vertex="1">
          <mxGeometry x="235" y="-665" width="30" height="30" as="geometry" />
        </mxCell>
        <mxCell id="oHPVTzvpM5pL2W-SlDK6-62" value="2-a" style="text;html=1;align=center;verticalAlign=middle;resizable=0;points=[];autosize=1;strokeColor=none;fillColor=none;" parent="1" vertex="1">
          <mxGeometry x="230" y="-665" width="40" height="30" as="geometry" />
        </mxCell>
        <mxCell id="oHPVTzvpM5pL2W-SlDK6-63" style="edgeStyle=orthogonalEdgeStyle;rounded=0;orthogonalLoop=1;jettySize=auto;html=1;exitX=0.5;exitY=0;exitDx=0;exitDy=0;exitPerimeter=0;entryX=0.5;entryY=0;entryDx=0;entryDy=0;entryPerimeter=0;strokeColor=#FF0000;" parent="1" source="oHPVTzvpM5pL2W-SlDK6-33" target="oHPVTzvpM5pL2W-SlDK6-7" edge="1">
          <mxGeometry relative="1" as="geometry">
            <Array as="points">
              <mxPoint x="1203" y="-850" />
              <mxPoint x="1202" y="-970" />
              <mxPoint x="59" y="-970" />
            </Array>
          </mxGeometry>
        </mxCell>
        <mxCell id="oHPVTzvpM5pL2W-SlDK6-64" style="edgeStyle=orthogonalEdgeStyle;rounded=0;orthogonalLoop=1;jettySize=auto;html=1;exitX=0;exitY=0.5;exitDx=0;exitDy=0;exitPerimeter=0;entryX=0.5;entryY=0.5;entryDx=0;entryDy=0;entryPerimeter=0;strokeColor=#66B2FF;" parent="1" source="NvbICenaS7u2JwvJMOHs-6" target="oHPVTzvpM5pL2W-SlDK6-7" edge="1">
          <mxGeometry relative="1" as="geometry">
            <Array as="points">
              <mxPoint x="59" y="-298" />
            </Array>
            <mxPoint x="322" y="-329" as="sourcePoint" />
          </mxGeometry>
        </mxCell>
        <mxCell id="oHPVTzvpM5pL2W-SlDK6-65" value="" style="verticalLabelPosition=bottom;verticalAlign=top;html=1;shape=mxgraph.flowchart.on-page_reference;align=center;" parent="1" vertex="1">
          <mxGeometry x="445" y="-670" width="30" height="30" as="geometry" />
        </mxCell>
        <mxCell id="oHPVTzvpM5pL2W-SlDK6-66" value="3" style="text;html=1;align=center;verticalAlign=middle;resizable=0;points=[];autosize=1;strokeColor=none;fillColor=none;" parent="1" vertex="1">
          <mxGeometry x="445" y="-670" width="30" height="30" as="geometry" />
        </mxCell>
        <mxCell id="oHPVTzvpM5pL2W-SlDK6-67" value="" style="verticalLabelPosition=bottom;verticalAlign=top;html=1;shape=mxgraph.flowchart.on-page_reference;align=center;" parent="1" vertex="1">
          <mxGeometry x="637" y="-770" width="30" height="30" as="geometry" />
        </mxCell>
        <mxCell id="oHPVTzvpM5pL2W-SlDK6-68" value="a" style="text;html=1;align=center;verticalAlign=middle;resizable=0;points=[];autosize=1;strokeColor=none;fillColor=none;" parent="1" vertex="1">
          <mxGeometry x="637" y="-770" width="30" height="30" as="geometry" />
        </mxCell>
        <mxCell id="oHPVTzvpM5pL2W-SlDK6-69" value="" style="verticalLabelPosition=bottom;verticalAlign=top;html=1;shape=mxgraph.flowchart.on-page_reference;align=center;" parent="1" vertex="1">
          <mxGeometry x="639" y="-502" width="30" height="30" as="geometry" />
        </mxCell>
        <mxCell id="oHPVTzvpM5pL2W-SlDK6-70" value="b" style="text;html=1;align=center;verticalAlign=middle;resizable=0;points=[];autosize=1;strokeColor=none;fillColor=none;" parent="1" vertex="1">
          <mxGeometry x="639" y="-502" width="30" height="30" as="geometry" />
        </mxCell>
        <mxCell id="oHPVTzvpM5pL2W-SlDK6-71" value="" style="verticalLabelPosition=bottom;verticalAlign=top;html=1;shape=mxgraph.flowchart.on-page_reference;align=center;" parent="1" vertex="1">
          <mxGeometry x="781" y="-871" width="30" height="30" as="geometry" />
        </mxCell>
        <mxCell id="oHPVTzvpM5pL2W-SlDK6-72" value="a-1-a" style="text;html=1;align=center;verticalAlign=middle;resizable=0;points=[];autosize=1;strokeColor=none;fillColor=none;" parent="1" vertex="1">
          <mxGeometry x="771" y="-871" width="50" height="30" as="geometry" />
        </mxCell>
        <mxCell id="oHPVTzvpM5pL2W-SlDK6-73" value="" style="verticalLabelPosition=bottom;verticalAlign=top;html=1;shape=mxgraph.flowchart.on-page_reference;align=center;" parent="1" vertex="1">
          <mxGeometry x="711" y="-751" width="30" height="30" as="geometry" />
        </mxCell>
        <mxCell id="oHPVTzvpM5pL2W-SlDK6-74" value="a-1-b" style="text;html=1;align=center;verticalAlign=middle;resizable=0;points=[];autosize=1;strokeColor=none;fillColor=none;" parent="1" vertex="1">
          <mxGeometry x="701" y="-751" width="50" height="30" as="geometry" />
        </mxCell>
        <mxCell id="oHPVTzvpM5pL2W-SlDK6-76" style="edgeStyle=orthogonalEdgeStyle;rounded=0;orthogonalLoop=1;jettySize=auto;html=1;exitX=-0.006;exitY=0.598;exitDx=0;exitDy=0;exitPerimeter=0;entryX=0;entryY=0.5;entryDx=0;entryDy=0;entryPerimeter=0;strokeColor=#FF0000;" parent="1" source="oHPVTzvpM5pL2W-SlDK6-2" target="oHPVTzvpM5pL2W-SlDK6-25" edge="1">
          <mxGeometry relative="1" as="geometry">
            <mxPoint x="937.9259999999999" y="-725" as="sourcePoint" />
            <mxPoint x="962" y="-806.02" as="targetPoint" />
            <Array as="points">
              <mxPoint x="913" y="-725" />
              <mxPoint x="910" y="-725" />
              <mxPoint x="910" y="-857" />
            </Array>
          </mxGeometry>
        </mxCell>
        <mxCell id="oHPVTzvpM5pL2W-SlDK6-77" value="" style="verticalLabelPosition=bottom;verticalAlign=top;html=1;shape=mxgraph.flowchart.on-page_reference;align=center;" parent="1" vertex="1">
          <mxGeometry x="897" y="-821" width="30" height="30" as="geometry" />
        </mxCell>
        <mxCell id="oHPVTzvpM5pL2W-SlDK6-78" value="a-2" style="text;html=1;align=center;verticalAlign=middle;resizable=0;points=[];autosize=1;strokeColor=none;fillColor=none;" parent="1" vertex="1">
          <mxGeometry x="892" y="-821" width="40" height="30" as="geometry" />
        </mxCell>
        <mxCell id="oHPVTzvpM5pL2W-SlDK6-79" value="" style="verticalLabelPosition=bottom;verticalAlign=top;html=1;shape=mxgraph.flowchart.on-page_reference;align=center;" parent="1" vertex="1">
          <mxGeometry x="1090" y="-862.02" width="30" height="30" as="geometry" />
        </mxCell>
        <mxCell id="oHPVTzvpM5pL2W-SlDK6-80" value="a-3-a" style="text;html=1;align=center;verticalAlign=middle;resizable=0;points=[];autosize=1;strokeColor=none;fillColor=none;" parent="1" vertex="1">
          <mxGeometry x="1080" y="-862.02" width="50" height="30" as="geometry" />
        </mxCell>
        <mxCell id="oHPVTzvpM5pL2W-SlDK6-81" value="" style="verticalLabelPosition=bottom;verticalAlign=top;html=1;shape=mxgraph.flowchart.on-page_reference;align=center;" parent="1" vertex="1">
          <mxGeometry x="538" y="-984" width="30" height="30" as="geometry" />
        </mxCell>
        <mxCell id="oHPVTzvpM5pL2W-SlDK6-82" value="a-4-a" style="text;html=1;align=center;verticalAlign=middle;resizable=0;points=[];autosize=1;strokeColor=none;fillColor=none;" parent="1" vertex="1">
          <mxGeometry x="528" y="-984" width="50" height="30" as="geometry" />
        </mxCell>
        <mxCell id="oHPVTzvpM5pL2W-SlDK6-83" value="" style="verticalLabelPosition=bottom;verticalAlign=top;html=1;shape=mxgraph.flowchart.on-page_reference;align=center;" parent="1" vertex="1">
          <mxGeometry x="592" y="-937.02" width="30" height="30" as="geometry" />
        </mxCell>
        <mxCell id="oHPVTzvpM5pL2W-SlDK6-84" value="a-3&lt;span style=&quot;background-color: transparent; color: light-dark(rgb(0, 0, 0), rgb(255, 255, 255));&quot;&gt;-b&lt;/span&gt;" style="text;html=1;align=center;verticalAlign=middle;resizable=0;points=[];autosize=1;strokeColor=none;fillColor=none;" parent="1" vertex="1">
          <mxGeometry x="582" y="-937.02" width="50" height="30" as="geometry" />
        </mxCell>
        <mxCell id="oHPVTzvpM5pL2W-SlDK6-85" value="" style="verticalLabelPosition=bottom;verticalAlign=top;html=1;shape=mxgraph.flowchart.on-page_reference;align=center;" parent="1" vertex="1">
          <mxGeometry x="605" y="-554.5" width="30" height="30" as="geometry" />
        </mxCell>
        <mxCell id="oHPVTzvpM5pL2W-SlDK6-86" value="2-b" style="text;html=1;align=center;verticalAlign=middle;resizable=0;points=[];autosize=1;strokeColor=none;fillColor=none;" parent="1" vertex="1">
          <mxGeometry x="600" y="-554.5" width="40" height="30" as="geometry" />
        </mxCell>
        <mxCell id="oHPVTzvpM5pL2W-SlDK6-87" value="" style="verticalLabelPosition=bottom;verticalAlign=top;html=1;shape=mxgraph.flowchart.on-page_reference;align=center;" parent="1" vertex="1">
          <mxGeometry x="786" y="-306.25" width="30" height="30" as="geometry" />
        </mxCell>
        <mxCell id="oHPVTzvpM5pL2W-SlDK6-88" value="b-1-a" style="text;html=1;align=center;verticalAlign=middle;resizable=0;points=[];autosize=1;strokeColor=none;fillColor=none;" parent="1" vertex="1">
          <mxGeometry x="776" y="-306.25" width="50" height="30" as="geometry" />
        </mxCell>
        <mxCell id="oHPVTzvpM5pL2W-SlDK6-89" value="" style="verticalLabelPosition=bottom;verticalAlign=top;html=1;shape=mxgraph.flowchart.on-page_reference;align=center;" parent="1" vertex="1">
          <mxGeometry x="788.5" y="-485" width="30" height="30" as="geometry" />
        </mxCell>
        <mxCell id="oHPVTzvpM5pL2W-SlDK6-90" value="b-1-b" style="text;html=1;align=center;verticalAlign=middle;resizable=0;points=[];autosize=1;strokeColor=none;fillColor=none;" parent="1" vertex="1">
          <mxGeometry x="778.5" y="-485" width="50" height="30" as="geometry" />
        </mxCell>
        <mxCell id="oHPVTzvpM5pL2W-SlDK6-91" value="" style="verticalLabelPosition=bottom;verticalAlign=top;html=1;shape=mxgraph.flowchart.on-page_reference;align=center;" parent="1" vertex="1">
          <mxGeometry x="980" y="-462.75" width="30" height="30" as="geometry" />
        </mxCell>
        <mxCell id="oHPVTzvpM5pL2W-SlDK6-92" value="b-2" style="text;html=1;align=center;verticalAlign=middle;resizable=0;points=[];autosize=1;strokeColor=none;fillColor=none;" parent="1" vertex="1">
          <mxGeometry x="975" y="-462.75" width="40" height="30" as="geometry" />
        </mxCell>
        <mxCell id="oHPVTzvpM5pL2W-SlDK6-97" value="" style="verticalLabelPosition=bottom;verticalAlign=top;html=1;shape=mxgraph.flowchart.on-page_reference;align=center;" parent="1" vertex="1">
          <mxGeometry x="1172.5" y="-244" width="30" height="30" as="geometry" />
        </mxCell>
        <mxCell id="oHPVTzvpM5pL2W-SlDK6-98" value="b-5-a" style="text;html=1;align=center;verticalAlign=middle;resizable=0;points=[];autosize=1;strokeColor=none;fillColor=none;" parent="1" vertex="1">
          <mxGeometry x="1162.5" y="-244" width="50" height="30" as="geometry" />
        </mxCell>
        <mxCell id="oHPVTzvpM5pL2W-SlDK6-99" value="" style="verticalLabelPosition=bottom;verticalAlign=top;html=1;shape=mxgraph.flowchart.on-page_reference;align=center;" parent="1" vertex="1">
          <mxGeometry x="1062.5" y="-164" width="30" height="30" as="geometry" />
        </mxCell>
        <mxCell id="oHPVTzvpM5pL2W-SlDK6-100" value="b-6" style="text;html=1;align=center;verticalAlign=middle;resizable=0;points=[];autosize=1;strokeColor=none;fillColor=none;" parent="1" vertex="1">
          <mxGeometry x="1057.5" y="-164" width="40" height="30" as="geometry" />
        </mxCell>
        <mxCell id="oHPVTzvpM5pL2W-SlDK6-101" value="" style="verticalLabelPosition=bottom;verticalAlign=top;html=1;shape=mxgraph.flowchart.on-page_reference;align=center;" parent="1" vertex="1">
          <mxGeometry x="168.5" y="-313.5" width="30" height="30" as="geometry" />
        </mxCell>
        <mxCell id="oHPVTzvpM5pL2W-SlDK6-102" value="b-8" style="text;html=1;align=center;verticalAlign=middle;resizable=0;points=[];autosize=1;strokeColor=none;fillColor=none;" parent="1" vertex="1">
          <mxGeometry x="163.5" y="-313.5" width="40" height="30" as="geometry" />
        </mxCell>
        <mxCell id="oHPVTzvpM5pL2W-SlDK6-107" value="语音指令" style="text;html=1;align=center;verticalAlign=middle;resizable=0;points=[];autosize=1;strokeColor=none;fillColor=none;" parent="1" vertex="1">
          <mxGeometry x="67" y="-637.5" width="70" height="30" as="geometry" />
        </mxCell>
        <mxCell id="oHPVTzvpM5pL2W-SlDK6-108" value="音频数据" style="text;html=1;align=center;verticalAlign=middle;resizable=0;points=[];autosize=1;strokeColor=none;fillColor=none;" parent="1" vertex="1">
          <mxGeometry x="215" y="-692.5" width="70" height="30" as="geometry" />
        </mxCell>
        <mxCell id="oHPVTzvpM5pL2W-SlDK6-109" value="麦克风暂时关闭" style="text;html=1;align=center;verticalAlign=middle;resizable=0;points=[];autosize=1;strokeColor=none;fillColor=none;" parent="1" vertex="1">
          <mxGeometry x="192" y="-635" width="110" height="30" as="geometry" />
        </mxCell>
        <mxCell id="oHPVTzvpM5pL2W-SlDK6-110" value="显示等待标识" style="text;html=1;align=center;verticalAlign=middle;resizable=0;points=[];autosize=1;strokeColor=none;fillColor=none;" parent="1" vertex="1">
          <mxGeometry x="569" y="-530" width="100" height="30" as="geometry" />
        </mxCell>
        <mxCell id="oHPVTzvpM5pL2W-SlDK6-111" value="去噪后&lt;div&gt;音频数据&lt;/div&gt;" style="text;html=1;align=center;verticalAlign=middle;resizable=0;points=[];autosize=1;strokeColor=none;fillColor=none;" parent="1" vertex="1">
          <mxGeometry x="427" y="-645" width="70" height="40" as="geometry" />
        </mxCell>
        <mxCell id="oHPVTzvpM5pL2W-SlDK6-112" value="系统未唤醒" style="text;html=1;align=center;verticalAlign=middle;resizable=0;points=[];autosize=1;strokeColor=none;fillColor=none;" parent="1" vertex="1">
          <mxGeometry x="567" y="-770" width="80" height="30" as="geometry" />
        </mxCell>
        <mxCell id="oHPVTzvpM5pL2W-SlDK6-113" value="系统已唤醒" style="text;html=1;align=center;verticalAlign=middle;resizable=0;points=[];autosize=1;strokeColor=none;fillColor=none;" parent="1" vertex="1">
          <mxGeometry x="569" y="-502" width="80" height="30" as="geometry" />
        </mxCell>
        <mxCell id="oHPVTzvpM5pL2W-SlDK6-114" value="去噪后音频数据" style="text;html=1;align=center;verticalAlign=middle;resizable=0;points=[];autosize=1;strokeColor=none;fillColor=none;" parent="1" vertex="1">
          <mxGeometry x="739" y="-851" width="110" height="30" as="geometry" />
        </mxCell>
        <mxCell id="oHPVTzvpM5pL2W-SlDK6-115" value="声纹特征数据" style="text;html=1;align=center;verticalAlign=middle;resizable=0;points=[];autosize=1;strokeColor=none;fillColor=none;" parent="1" vertex="1">
          <mxGeometry x="676" y="-728.5" width="100" height="30" as="geometry" />
        </mxCell>
        <mxCell id="oHPVTzvpM5pL2W-SlDK6-117" value="语音识别结果" style="text;html=1;align=center;verticalAlign=middle;resizable=0;points=[];autosize=1;strokeColor=none;fillColor=none;" parent="1" vertex="1">
          <mxGeometry x="859" y="-793.5" width="100" height="30" as="geometry" />
        </mxCell>
        <mxCell id="oHPVTzvpM5pL2W-SlDK6-121" value="语音识别结果" style="text;html=1;align=center;verticalAlign=middle;resizable=0;points=[];autosize=1;strokeColor=none;fillColor=none;" parent="1" vertex="1">
          <mxGeometry x="1062.5" y="-640" width="100" height="30" as="geometry" />
        </mxCell>
        <mxCell id="oHPVTzvpM5pL2W-SlDK6-122" value="检测匹配" style="text;html=1;align=center;verticalAlign=middle;resizable=0;points=[];autosize=1;strokeColor=none;fillColor=none;" parent="1" vertex="1">
          <mxGeometry x="1070" y="-841" width="70" height="30" as="geometry" />
        </mxCell>
        <mxCell id="oHPVTzvpM5pL2W-SlDK6-123" value="检测不匹配" style="text;html=1;align=center;verticalAlign=middle;resizable=0;points=[];autosize=1;strokeColor=none;fillColor=none;" parent="1" vertex="1">
          <mxGeometry x="569" y="-907.02" width="80" height="30" as="geometry" />
        </mxCell>
        <mxCell id="oHPVTzvpM5pL2W-SlDK6-127" value="检测结果" style="text;html=1;align=center;verticalAlign=middle;resizable=0;points=[];autosize=1;strokeColor=none;fillColor=none;" parent="1" vertex="1">
          <mxGeometry x="1110" y="-715" width="70" height="30" as="geometry" />
        </mxCell>
        <mxCell id="oHPVTzvpM5pL2W-SlDK6-128" value="去噪后&lt;div&gt;音频数据&lt;/div&gt;" style="text;html=1;align=center;verticalAlign=middle;resizable=0;points=[];autosize=1;strokeColor=none;fillColor=none;" parent="1" vertex="1">
          <mxGeometry x="762" y="-276.25" width="70" height="40" as="geometry" />
        </mxCell>
        <mxCell id="oHPVTzvpM5pL2W-SlDK6-129" value="已保存的声纹特征" style="text;html=1;align=center;verticalAlign=middle;resizable=0;points=[];autosize=1;strokeColor=none;fillColor=none;" parent="1" vertex="1">
          <mxGeometry x="751" y="-454" width="120" height="30" as="geometry" />
        </mxCell>
        <mxCell id="oHPVTzvpM5pL2W-SlDK6-130" value="经过筛选&lt;div&gt;的音频数据&lt;/div&gt;" style="text;html=1;align=center;verticalAlign=middle;resizable=0;points=[];autosize=1;strokeColor=none;fillColor=none;" parent="1" vertex="1">
          <mxGeometry x="952.5" y="-432.75" width="80" height="40" as="geometry" />
        </mxCell>
        <mxCell id="oHPVTzvpM5pL2W-SlDK6-139" style="edgeStyle=orthogonalEdgeStyle;rounded=0;orthogonalLoop=1;jettySize=auto;html=1;exitX=0.5;exitY=1;exitDx=0;exitDy=0;exitPerimeter=0;entryX=0.094;entryY=0.417;entryDx=0;entryDy=0;entryPerimeter=0;strokeColor=#999900;" parent="1" source="oHPVTzvpM5pL2W-SlDK6-25" target="oHPVTzvpM5pL2W-SlDK6-1" edge="1">
          <mxGeometry relative="1" as="geometry">
            <Array as="points">
              <mxPoint x="1010" y="-740" />
              <mxPoint x="1230" y="-740" />
            </Array>
          </mxGeometry>
        </mxCell>
        <mxCell id="oHPVTzvpM5pL2W-SlDK6-143" style="edgeStyle=orthogonalEdgeStyle;rounded=0;orthogonalLoop=1;jettySize=auto;html=1;entryX=0.494;entryY=1;entryDx=0;entryDy=0;entryPerimeter=0;strokeColor=#999900;" parent="1" target="oHPVTzvpM5pL2W-SlDK6-1" edge="1">
          <mxGeometry relative="1" as="geometry">
            <mxPoint x="1065" y="-648" as="sourcePoint" />
          </mxGeometry>
        </mxCell>
        <mxCell id="oHPVTzvpM5pL2W-SlDK6-144" value="" style="verticalLabelPosition=bottom;verticalAlign=top;html=1;shape=mxgraph.flowchart.on-page_reference;align=center;" parent="1" vertex="1">
          <mxGeometry x="1095" y="-662.5" width="30" height="30" as="geometry" />
        </mxCell>
        <mxCell id="oHPVTzvpM5pL2W-SlDK6-145" value="c" style="text;html=1;align=center;verticalAlign=middle;resizable=0;points=[];autosize=1;strokeColor=none;fillColor=none;" parent="1" vertex="1">
          <mxGeometry x="1095" y="-662.5" width="30" height="30" as="geometry" />
        </mxCell>
        <mxCell id="oHPVTzvpM5pL2W-SlDK6-146" value="" style="verticalLabelPosition=bottom;verticalAlign=top;html=1;shape=mxgraph.flowchart.on-page_reference;align=center;" parent="1" vertex="1">
          <mxGeometry x="1130" y="-751" width="30" height="30" as="geometry" />
        </mxCell>
        <mxCell id="oHPVTzvpM5pL2W-SlDK6-147" value="a-3&lt;span style=&quot;background-color: transparent; color: light-dark(rgb(0, 0, 0), rgb(255, 255, 255));&quot;&gt;-c&lt;/span&gt;" style="text;html=1;align=center;verticalAlign=middle;resizable=0;points=[];autosize=1;strokeColor=none;fillColor=none;" parent="1" vertex="1">
          <mxGeometry x="1120" y="-751" width="50" height="30" as="geometry" />
        </mxCell>
        <mxCell id="oHPVTzvpM5pL2W-SlDK6-148" value="指令组合" style="text;html=1;align=center;verticalAlign=middle;resizable=0;points=[];autosize=1;strokeColor=none;fillColor=none;" parent="1" vertex="1">
          <mxGeometry x="1188.5" y="-244" width="70" height="30" as="geometry" />
        </mxCell>
        <mxCell id="oHPVTzvpM5pL2W-SlDK6-149" value="参数列表" style="text;html=1;align=center;verticalAlign=middle;resizable=0;points=[];autosize=1;strokeColor=none;fillColor=none;" parent="1" vertex="1">
          <mxGeometry x="1042.5" y="-139" width="70" height="30" as="geometry" />
        </mxCell>
        <mxCell id="oHPVTzvpM5pL2W-SlDK6-153" value="流程尚未完成" style="text;html=1;align=center;verticalAlign=middle;resizable=0;points=[];autosize=1;strokeColor=none;fillColor=none;" parent="1" vertex="1">
          <mxGeometry x="133.5" y="-338.5" width="100" height="30" as="geometry" />
        </mxCell>
        <mxCell id="oHPVTzvpM5pL2W-SlDK6-154" value="启动麦克风" style="text;html=1;align=center;verticalAlign=middle;resizable=0;points=[];autosize=1;strokeColor=none;fillColor=none;" parent="1" vertex="1">
          <mxGeometry x="143.5" y="-285.5" width="80" height="30" as="geometry" />
        </mxCell>
        <mxCell id="NvbICenaS7u2JwvJMOHs-2" style="edgeStyle=orthogonalEdgeStyle;rounded=0;orthogonalLoop=1;jettySize=auto;html=1;exitX=0;exitY=0;exitDx=40;exitDy=96.00000000000001;exitPerimeter=0;entryX=0.984;entryY=0.558;entryDx=0;entryDy=0;entryPerimeter=0;strokeColor=#66B2FF;" edge="1" parent="1" source="oHPVTzvpM5pL2W-SlDK6-53" target="NvbICenaS7u2JwvJMOHs-6">
          <mxGeometry relative="1" as="geometry">
            <mxPoint x="437.1500000000001" y="-394.48" as="targetPoint" />
            <Array as="points">
              <mxPoint x="590" y="-140" />
              <mxPoint x="590" y="-294" />
            </Array>
          </mxGeometry>
        </mxCell>
        <mxCell id="NvbICenaS7u2JwvJMOHs-3" value="上下文" style="shape=note;size=20;whiteSpace=wrap;html=1;" vertex="1" parent="1">
          <mxGeometry x="1087.5" y="-490" width="80" height="70" as="geometry" />
        </mxCell>
        <mxCell id="NvbICenaS7u2JwvJMOHs-6" value="值机信息" style="shape=note;size=20;whiteSpace=wrap;html=1;" vertex="1" parent="1">
          <mxGeometry x="395" y="-333" width="80" height="70" as="geometry" />
        </mxCell>
        <mxCell id="NvbICenaS7u2JwvJMOHs-7" value="" style="verticalLabelPosition=bottom;verticalAlign=top;html=1;shape=mxgraph.flowchart.on-page_reference;align=center;" vertex="1" parent="1">
          <mxGeometry x="573" y="-236.25" width="30" height="30" as="geometry" />
        </mxCell>
        <mxCell id="NvbICenaS7u2JwvJMOHs-8" value="b-7" style="text;html=1;align=center;verticalAlign=middle;resizable=0;points=[];autosize=1;strokeColor=none;fillColor=none;" vertex="1" parent="1">
          <mxGeometry x="568" y="-236.25" width="40" height="30" as="geometry" />
        </mxCell>
        <mxCell id="NvbICenaS7u2JwvJMOHs-9" value="记录值机信息" style="text;html=1;align=center;verticalAlign=middle;resizable=0;points=[];autosize=1;strokeColor=none;fillColor=none;" vertex="1" parent="1">
          <mxGeometry x="538" y="-206.25" width="100" height="30" as="geometry" />
        </mxCell>
        <mxCell id="NvbICenaS7u2JwvJMOHs-27" style="edgeStyle=orthogonalEdgeStyle;rounded=0;orthogonalLoop=1;jettySize=auto;html=1;exitX=0.002;exitY=0.203;exitDx=0;exitDy=0;exitPerimeter=0;entryX=0;entryY=0;entryDx=80;entryDy=45;entryPerimeter=0;fillColor=#d5e8d4;strokeColor=#82b366;" edge="1" parent="1" source="oHPVTzvpM5pL2W-SlDK6-48" target="NvbICenaS7u2JwvJMOHs-3">
          <mxGeometry relative="1" as="geometry">
            <Array as="points">
              <mxPoint x="1220" y="-445" />
            </Array>
          </mxGeometry>
        </mxCell>
        <mxCell id="NvbICenaS7u2JwvJMOHs-28" value="" style="verticalLabelPosition=bottom;verticalAlign=top;html=1;shape=mxgraph.flowchart.on-page_reference;align=center;" vertex="1" parent="1">
          <mxGeometry x="1205" y="-420" width="30" height="30" as="geometry" />
        </mxCell>
        <mxCell id="NvbICenaS7u2JwvJMOHs-29" value="b-5-b" style="text;html=1;align=center;verticalAlign=middle;resizable=0;points=[];autosize=1;strokeColor=none;fillColor=none;" vertex="1" parent="1">
          <mxGeometry x="1195" y="-420" width="50" height="30" as="geometry" />
        </mxCell>
        <mxCell id="NvbICenaS7u2JwvJMOHs-30" value="记录上下文" style="text;html=1;align=center;verticalAlign=middle;resizable=0;points=[];autosize=1;strokeColor=none;fillColor=none;" vertex="1" parent="1">
          <mxGeometry x="1180" y="-395" width="80" height="30" as="geometry" />
        </mxCell>
        <mxCell id="NvbICenaS7u2JwvJMOHs-32" value="意图识别" style="text;html=1;align=center;verticalAlign=middle;resizable=0;points=[];autosize=1;strokeColor=none;fillColor=none;" vertex="1" parent="1">
          <mxGeometry x="1125" y="-333" width="70" height="30" as="geometry" />
        </mxCell>
        <mxCell id="NvbICenaS7u2JwvJMOHs-35" style="edgeStyle=orthogonalEdgeStyle;rounded=0;orthogonalLoop=1;jettySize=auto;html=1;exitX=1.012;exitY=0.163;exitDx=0;exitDy=0;exitPerimeter=0;strokeColor=#66B2FF;" edge="1" parent="1" source="oHPVTzvpM5pL2W-SlDK6-2" target="NvbICenaS7u2JwvJMOHs-3">
          <mxGeometry relative="1" as="geometry">
            <Array as="points">
              <mxPoint x="1024" y="-510" />
              <mxPoint x="1128" y="-510" />
            </Array>
          </mxGeometry>
        </mxCell>
        <mxCell id="NvbICenaS7u2JwvJMOHs-36" value="" style="verticalLabelPosition=bottom;verticalAlign=top;html=1;shape=mxgraph.flowchart.on-page_reference;align=center;" vertex="1" parent="1">
          <mxGeometry x="1055" y="-527" width="30" height="30" as="geometry" />
        </mxCell>
        <mxCell id="NvbICenaS7u2JwvJMOHs-37" value="b-3" style="text;html=1;align=center;verticalAlign=middle;resizable=0;points=[];autosize=1;strokeColor=none;fillColor=none;" vertex="1" parent="1">
          <mxGeometry x="1050" y="-527" width="40" height="30" as="geometry" />
        </mxCell>
        <mxCell id="NvbICenaS7u2JwvJMOHs-38" value="语音识&lt;span style=&quot;background-color: transparent; color: light-dark(rgb(0, 0, 0), rgb(255, 255, 255));&quot;&gt;别结果&lt;/span&gt;" style="text;html=1;align=center;verticalAlign=middle;resizable=0;points=[];autosize=1;strokeColor=none;fillColor=none;" vertex="1" parent="1">
          <mxGeometry x="1020" y="-502" width="100" height="30" as="geometry" />
        </mxCell>
        <mxCell id="NvbICenaS7u2JwvJMOHs-39" style="edgeStyle=orthogonalEdgeStyle;rounded=0;orthogonalLoop=1;jettySize=auto;html=1;exitX=0.5;exitY=1;exitDx=0;exitDy=0;exitPerimeter=0;strokeColor=#66B2FF;entryX=-0.008;entryY=0.697;entryDx=0;entryDy=0;entryPerimeter=0;" edge="1" parent="1" source="NvbICenaS7u2JwvJMOHs-3" target="oHPVTzvpM5pL2W-SlDK6-48">
          <mxGeometry relative="1" as="geometry">
            <Array as="points">
              <mxPoint x="1127" y="-390" />
              <mxPoint x="1127" y="-390" />
            </Array>
          </mxGeometry>
        </mxCell>
        <mxCell id="NvbICenaS7u2JwvJMOHs-40" value="" style="verticalLabelPosition=bottom;verticalAlign=top;html=1;shape=mxgraph.flowchart.on-page_reference;align=center;" vertex="1" parent="1">
          <mxGeometry x="1111" y="-406.75" width="30" height="30" as="geometry" />
        </mxCell>
        <mxCell id="NvbICenaS7u2JwvJMOHs-41" value="b-4" style="text;html=1;align=center;verticalAlign=middle;resizable=0;points=[];autosize=1;strokeColor=none;fillColor=none;" vertex="1" parent="1">
          <mxGeometry x="1106" y="-406.75" width="40" height="30" as="geometry" />
        </mxCell>
        <mxCell id="NvbICenaS7u2JwvJMOHs-42" value="含上下文的文字输入" style="text;html=1;align=center;verticalAlign=middle;resizable=0;points=[];autosize=1;strokeColor=none;fillColor=none;" vertex="1" parent="1">
          <mxGeometry x="1062.5" y="-383.25" width="130" height="30" as="geometry" />
        </mxCell>
        <mxCell id="NvbICenaS7u2JwvJMOHs-43" value="LLM" style="verticalAlign=top;align=left;spacingTop=8;spacingLeft=2;spacingRight=12;shape=cube;size=10;direction=south;fontStyle=4;html=1;whiteSpace=wrap;" vertex="1" parent="1">
          <mxGeometry x="366" y="-206.25" width="138" height="90" as="geometry" />
        </mxCell>
        <mxCell id="NvbICenaS7u2JwvJMOHs-44" value="根据值机信息变更生成对应回复" style="shape=module;align=left;spacingLeft=20;align=center;verticalAlign=top;whiteSpace=wrap;html=1;" vertex="1" parent="1">
          <mxGeometry x="385" y="-170.25" width="100" height="50" as="geometry" />
        </mxCell>
        <mxCell id="NvbICenaS7u2JwvJMOHs-45" value="回复生成" style="text;html=1;align=center;verticalAlign=middle;resizable=0;points=[];autosize=1;strokeColor=none;fillColor=none;" vertex="1" parent="1">
          <mxGeometry x="400" y="-198.5" width="70" height="30" as="geometry" />
        </mxCell>
        <mxCell id="NvbICenaS7u2JwvJMOHs-46" style="edgeStyle=orthogonalEdgeStyle;rounded=0;orthogonalLoop=1;jettySize=auto;html=1;exitX=0.5;exitY=1;exitDx=0;exitDy=0;exitPerimeter=0;entryX=0.034;entryY=0.498;entryDx=0;entryDy=0;entryPerimeter=0;strokeColor=#999900;" edge="1" parent="1" source="NvbICenaS7u2JwvJMOHs-6" target="NvbICenaS7u2JwvJMOHs-43">
          <mxGeometry relative="1" as="geometry" />
        </mxCell>
        <mxCell id="NvbICenaS7u2JwvJMOHs-47" style="edgeStyle=orthogonalEdgeStyle;rounded=0;orthogonalLoop=1;jettySize=auto;html=1;exitX=0;exitY=0;exitDx=90;exitDy=74;exitPerimeter=0;entryX=0;entryY=0;entryDx=35;entryDy=0;entryPerimeter=0;strokeColor=#999900;" edge="1" parent="1" source="NvbICenaS7u2JwvJMOHs-43" target="oHPVTzvpM5pL2W-SlDK6-1">
          <mxGeometry relative="1" as="geometry">
            <Array as="points">
              <mxPoint x="430" y="-70" />
              <mxPoint x="1300" y="-70" />
              <mxPoint x="1300" y="-652" />
            </Array>
          </mxGeometry>
        </mxCell>
        <mxCell id="NvbICenaS7u2JwvJMOHs-50" value="" style="verticalLabelPosition=bottom;verticalAlign=top;html=1;shape=mxgraph.flowchart.on-page_reference;align=center;" vertex="1" parent="1">
          <mxGeometry x="745" y="-84" width="30" height="30" as="geometry" />
        </mxCell>
        <mxCell id="NvbICenaS7u2JwvJMOHs-51" value="d-2" style="text;html=1;align=center;verticalAlign=middle;resizable=0;points=[];autosize=1;strokeColor=none;fillColor=none;" vertex="1" parent="1">
          <mxGeometry x="740" y="-84" width="40" height="30" as="geometry" />
        </mxCell>
        <mxCell id="NvbICenaS7u2JwvJMOHs-52" value="生成回复文本" style="text;html=1;align=center;verticalAlign=middle;resizable=0;points=[];autosize=1;strokeColor=none;fillColor=none;" vertex="1" parent="1">
          <mxGeometry x="710" y="-56.75" width="100" height="30" as="geometry" />
        </mxCell>
        <mxCell id="NvbICenaS7u2JwvJMOHs-53" value="" style="verticalLabelPosition=bottom;verticalAlign=top;html=1;shape=mxgraph.flowchart.on-page_reference;align=center;" vertex="1" parent="1">
          <mxGeometry x="420" y="-251.62" width="30" height="30" as="geometry" />
        </mxCell>
        <mxCell id="NvbICenaS7u2JwvJMOHs-54" value="d-1" style="text;html=1;align=center;verticalAlign=middle;resizable=0;points=[];autosize=1;strokeColor=none;fillColor=none;" vertex="1" parent="1">
          <mxGeometry x="415" y="-251.62" width="40" height="30" as="geometry" />
        </mxCell>
        <mxCell id="NvbICenaS7u2JwvJMOHs-55" value="将值机信息的变更&lt;div&gt;发送给LLM&lt;/div&gt;" style="text;html=1;align=center;verticalAlign=middle;resizable=0;points=[];autosize=1;strokeColor=none;fillColor=none;" vertex="1" parent="1">
          <mxGeometry x="437" y="-257.62" width="120" height="40" as="geometry" />
        </mxCell>
      </root>
    </mxGraphModel>
  </diagram>
</mxfile>
